/* XPM */
static char *result[] = {
/* columns rows colors chars-per-pixel */
"98 83 204 2 ",
"   c #000000",
".  c #060A03",
"X  c #090B05",
"o  c #0D0D0A",
"O  c #090702",
"+  c #0C1205",
"@  c #0D1209",
"#  c #12130D",
"$  c #131B0B",
"%  c #141607",
"&  c #1A1B15",
"*  c #1D1F19",
"=  c #141612",
"-  c #241A06",
";  c #16220A",
":  c #1A240B",
">  c #1C2B0D",
",  c #1A2007",
"<  c #1B2412",
"1  c #1F2618",
"2  c #242B0C",
"3  c #282F0F",
"4  c #23241C",
"5  c #262B18",
"6  c #223312",
"7  c #2C3C1D",
"8  c #283816",
"9  c #333211",
"0  c #2B2D25",
"q  c #262821",
"w  c #32352C",
"e  c #3B3D28",
"r  c #3B3D33",
"t  c #2E3129",
"y  c #4E380C",
"u  c #2D4416",
"i  c #324C19",
"p  c #304917",
"a  c #3D5B1E",
"s  c #37541B",
"d  c #334422",
"f  c #3A4724",
"g  c #3E5329",
"h  c #3C5227",
"j  c #3F4237",
"k  c #765313",
"l  c #6D4B11",
"z  c #40621F",
"x  c #45482D",
"c  c #465E2F",
"v  c #41572B",
"b  c #464939",
"n  c #4E5133",
"m  c #515436",
"M  c #545738",
"N  c #555839",
"B  c #595C3C",
"V  c #436522",
"C  c #466A23",
"Z  c #496E24",
"A  c #4D7426",
"S  c #4F7827",
"D  c #537D29",
"F  c #53762F",
"G  c #4A6331",
"H  c #4E6934",
"J  c #5C7B3D",
"K  c #577738",
"L  c #536F37",
"P  c #4D5144",
"I  c #555A4B",
"U  c #595E4E",
"Y  c #575B47",
"T  c #4A4E41",
"R  c #5D6151",
"E  c #656A59",
"W  c #6D725A",
"Q  c #686C4D",
"!  c #757B65",
"~  c #875B15",
"^  c #926D18",
"/  c #BC761A",
"(  c #BE7B1B",
")  c #A6731A",
"_  c #835F26",
"`  c #85622B",
"'  c #957438",
"]  c #8F6D31",
"[  c #C27C1B",
"{  c #9C7A44",
"}  c #56822B",
"|  c #59852C",
" . c #5C8B2E",
".. c #5F902F",
"X. c #62942F",
"o. c #649631",
"O. c #669933",
"+. c #699D34",
"@. c #6B9E38",
"#. c #638A3C",
"$. c #6CA235",
"%. c #6EA23A",
"&. c #71A43E",
"*. c #72AC39",
"=. c #70A837",
"-. c #638441",
";. c #6A8D46",
":. c #668944",
">. c #6E9249",
",. c #759C4E",
"<. c #70964A",
"1. c #76AA43",
"2. c #76A845",
"3. c #7CB148",
"4. c #7AA351",
"5. c #7EA954",
"6. c #7C836B",
"7. c #A5873E",
"8. c #C5821D",
"9. c #CA851E",
"0. c #CD891E",
"q. c #D28C1F",
"w. c #D3911F",
"e. c #D7991F",
"r. c #CE8A20",
"t. c #D38E20",
"y. c #D69221",
"u. c #DA9521",
"i. c #D59A21",
"p. c #DD9A22",
"a. c #DD9D28",
"s. c #E29D23",
"d. c #E29F28",
"f. c #DEA223",
"g. c #E5A223",
"h. c #E9A524",
"j. c #E6AA24",
"k. c #ECAB25",
"l. c #E4A029",
"z. c #E8AC29",
"x. c #F1AE25",
"c. c #EEB225",
"v. c #ECB328",
"b. c #EEBB29",
"n. c #E7B029",
"m. c #F2B426",
"M. c #F5BA26",
"N. c #F9BD27",
"B. c #F4B528",
"V. c #F4BC28",
"C. c #F9BE28",
"Z. c #FBC127",
"A. c #FBC229",
"S. c #F7C42B",
"D. c #AA8B44",
"F. c #A6854D",
"G. c #AC8B4C",
"H. c #A58446",
"J. c #A98951",
"K. c #B3935C",
"L. c #B8985A",
"P. c #B1934C",
"I. c #81B44D",
"U. c #84BA4E",
"Y. c #83B651",
"T. c #86BA53",
"R. c #86B359",
"E. c #89B65B",
"W. c #8DBC5D",
"Q. c #89BD56",
"!. c #83AF58",
"~. c #BEA05A",
"^. c #82886C",
"/. c #848B73",
"(. c #808770",
"). c #8D947A",
"_. c #91987E",
"`. c #8FBE60",
"'. c #B89762",
"]. c #C1A363",
"[. c #8EC15B",
"{. c #8CC256",
"}. c #91C55D",
"|. c #93C95D",
" X c #94C562",
".X c #96C964",
"XX c #99CC66",
"oX c #9BCE68",
"OX c #9DD269",
"+X c #A1D66B",
"@X c #A4DA6D",
"#X c #A7DD70",
"$X c #ABE472",
"%X c #A8E06F",
"&X c #939B81",
"*X c #9AA186",
"=X c #9EA68A",
"-X c #A1A98D",
";X c #A5AE91",
":X c #ABB395",
">X c #AEB798",
",X c #AFB89A",
"<X c #B2BB9C",
"1X c #B9C2A2",
/* pixels */
"p.s.g.g.h.s.h.g.s.h.s.s.h.s.s.h.h.s.h.h.s.h.s.h.s.s.s.s.h.s.s.s.h.s.s.s.h.h.h.s.p.g.s.h.s.s.s.h.s.s.h.s.g.g.g.s.h.s.s.s.s.s.h.s.h.s.h.s.s.h.h.h.w.e.s.s.s.g.h.s.s.h.s.s.s.h.h.s.s.s.s.s.h.s.s.h.g.K.",
"s.g.h.s.h.h.s.h.h.s.h.h.h.h.s.s.h.s.s.s.h.s.s.h.s.s.h.s.s.k.h.h.h.s.h.h.h.s.g.h.s.g.h.k h.g.h.g.s.s.h.s.h.g.g.h.h.s.h.h.s.h.s.s.h.h.s.h.h.s.s.h.h.s.h.h.g.k.s.h.h.s.h.h.h.s.h.h.h.s.h.h.h.s.h.h.h.L.",
"k.c.h.g.h.h.h.h.h.h.g.k.h.k.h.h.h.x.s.h.x.x.s.x.x.s.k.h.h.g.s.h.k.h.h.h.h.h.h.h.-                             k h.h.h.k.h.k.h.h.h.h.h.h.k.h.h.h.k.h.k.k.h.h.s.k.h.h.h.h.h.d.h.h.h.h.g.h.h.k.k.k.k.L.",
"m.m.k.m.k.k.k.x.x.h.h.h.x.k.k.x.h.h.x.x.h.s.x.s.x.x.h.d.k.k.h.m.h.x.x.  k.x.      . h 4.,.<.>.:.J i > X             h.h.k.k.x.    h.x.k.h.h.k.h.x.x.h.h.m.k.k.c.h.k.x.h.h.x.k.h.k.k.k.c.x.k.m.k.c.L.",
"g.j.c.m.B.m.j.m.x.x.x.x.s.h.x.x.s.x.x.x.h.h.x.h.x.h.x.k.x.x.c.c.c.M.B.        $ H E.OXOX@XOX@X@X#X|.O.X.Z 8 .         x.l       h.k.x.x.h.k.c.k.x.k.c.c.M.m.B.m.m.m.B.m.B.x.x.m.x.k.m.c.k.s.h.s.e.P.",
"u.u.u.p.p.j.c.m.N.m.B.x.x.x.x.x.x.x.x.x.x.x.x.x.x.x.m.k.m.m.V.k.c.k.k.        < 4.W.OXXXXXXX.XXX.XoX3.o.$.$. .s O           m.x.k.m.m.m.c.m.m.M.N.N.V.k.c.k.j.g.k.k.k.m.m.N.m.c.N.B.c.g.s.s.e.u.u.{ ",
"s.t.u.u.e.u.u.s.k.B.N.N.N.B.B.B.N.x.N.x.m.B.B.m.B.B.B.B.N.c.g.g.u.u.p.    O v < < 7 R.OX.XoXXXXX.XoX|.o.O.O.$.Z .         B.B.B.m.M.m.m.M.N.Z.M.k.h.f.u.e.p.u.s.e.e.u.u.s.g.h.k.s.s.t.e.e.s.w.s.d.J.",
"s.u.u.u.s.s.s.u.s.e.h.x.N.N.N.N.N.B.x.B.B.N.C.N.N.N.N.h.p.p.w.p.e.s.p.    @ OXOXoXoX.XXX.XXXXXXXXX.XoX1.X.O.o.A | s       O B.N.N.Z.c.N.M.k.s.p.y.p.p.u.e.p.e.u.u.s.u.s.u.p.e.e.s.s.s.q.s.s.s.p.p.J.",
"g.g.u.s.s.g.g.s.s.p.s.u.s.k.x.V.N.N.C.A.M.M.m.V.x.h.s.u.s.g.s.s.s.u.s.    5 OX.XOXXXXXXXXXXXXXXX+X@XOX3.X.O.O.$.$...O       A.A.Z.m.k.h.e.e.e.g.g.s.s.p.s.s.s.s.s.u.s.s.p.p.s.s.s.s.s.s.s.s.s.s.s.J.",
"s.g.s.s.s.g.s.s.s.s.s.s.s.s.s.s.s.g.g.s.h.s.g.s.p.s.s.s.s.g.p.h.h.s.  O   f @X.X.XXXXXXXXX.XXXXXH v `.T.X.O.O.O.o.$.>         k.g.e.e.e.g.s.h.s.s.s.p.g.g.g.s.s.h.s.s.h.s.u.h.s.u.s.g.g.s.s.s.s.s.J.",
"h.d.h.s.h.s.s.g.h.h.h.h.k.s.s.s.h.h.s.g.g.g.g.g.g.l.g.h.s.s.g.s.s.h.      J %X.XXXXXXXXXXXXX.XOX:.G W.I.X.O.O.O.o.$.s           k h.g.j.h.g.h.s.g.h.h.j.g.s.g.g.s.h.s.h.h.h.h.s.s.s.g.h.h.h.h.s.s.J.",
"h.h.k.h.h.h.g.h.h.h.h.h.d.s.k.k.k.g.h.k.h.h.s.h.p.h.h.k.g.s.h.s.s.O       7 E.XXXXXXXXXXXXXXXX.X+X@XOX%.X.O.O.+.o.$.Z         k.k.g.j.c.k.k.s.x.s.h.h.k.h.s.k.s.s.h.g.h.h.g.h.h.g.h.g.h.s.h.s.h.h.J.",
"h.g.k.h.h.k.g.s.k.g.h.k.h.g.k.x.x.k.h.k.k.k.m.k.h.k.h.k.x.h.g.k.k.k.      h 5.XXXXXXXXXXXXXXXXXX.XoX|.+.$.$.$.X.O.+.}         ) c.c.c.m.c.c.M.m.c.m.m.c.c.h.j.k.x.h.k.h.k.g.h.h.h.k.h.h.k.h.d.k.h.G.",
"h.h.h.h.x.h.k.k.x.h.k.m.x.k.k.x.m.m.k.m.x.  k.k.m.k.k.x.k.k.x.k.p.x.      4.@X XXXXXXXXXXXXXXXXX.X+Xh ; > 6 C O.O.+.|         ^ m.c.e.e.0.9.8.9.w.e.f.c.m.M.m.k.g.x.x.k.h.x.k.x.k.h.h.k.x.x.h.d.x.G.",
"x.B.x.x.x.x.m.m.x.k.f.m.m.M.N.N.V.%                   m.c.m.m.k.k.x.      >.+X.XXXXXXXXXXXXXXXXXXX.XV u 8 u C O.X.+. .O       g.w.8./ ( 8.8./ / / / / 8.q.g.m.B.c.c.m.k.k.m.k.x.x.x.h.g.k.x.x.x.k.G.",
"k.x.x.m.m.m.m.m.m.c.N.N.b.j.5     6 G J . $ V C u       ^ N.M.M.B.B.      >.@X.XXXXXXXXXXXXXXXXXXXQ.+.$.$.$.$.O.O.+.}         8.8.9.q.9.0.0.q.0.q.0.8.8.[ [ 0.s.c.N.M.B.k.c.k.B.B.x.m.x.x.x.x.B.x.G.",
"N.B.k.c.M.b.m.Z.C.M.z.i.<     H R.OX@X%X2...%.$.$.S $       c.V.A.N.  O   >.@X.X.X.X.X+XoX.XoX.XOX3.X.O.+.o.O.O.o.@.A         q.r.0.t.t.t.y.t.t.t.t.t.t.q.[ 9.[ 9.e.k.A.N.m.N.B.m.k.m.m.m.m.m.B.B.P.",
"N.N.M.A.Z.c.k.j.a.y.0.    < R.@XOXXX.XoXI.o.O.O.O.$...+           f.      ;.+X.XXX+X#X,.E.OX.X.XXX&.X.O.o.+.O.O.o.%.a         y.t.y.u.t.u.t.r.r.t.t.u.t.u.u.q.t.0.9.[ q.f.c.N.N.A.N.N.N.c.B.N.M.N.P.",
"N.V.k.k.g.p.y.0.u.y.    @ `.@X.XXXXXXXXX&.X.O.O.O.O. .%           r.      ;.+X.XoXR.d   !.oX.XoX}.O.o.O.+.o.O.O.O.*.6       u.u.u.t.t.y.t.t.u.u.s.u.u.t.t.u.q.u.u.p.q.t.q.q.u.s.m.M.A.A.A.A.Z.Z.M.P.",
"s.u.y.u.y.u.u.u.u.      : 5.`.XXXXXXXX.X+.o.O.O.O.O.O.o.+         y.      ;.+XXXW.5 6 <.oX.X.XoXQ.o.O.O.o.+.o.+.| a X       y.a.u.0.s.u.u.s.s.u.t.t.u.s.w.u.s.u.u.p.u.s.e.w.t.q.q.e.s.e.g.h.k.g.s.{ ",
"p.u.s.u.p.y.y.u.        8 g -.`.oX.XoXQ.X.O.O.O.O.O.O.$.6         u.      :.@X.X.X X@X@X.XXX.XOX2.X.O.O.O.O.o.o.O.8         r.p.s.s.u.u.u.u.u.s.u.t.s.u.s.u.u.p.u.u.p.y.e.s.s.u.p.w.u.u.u.u.u.q.p.{ ",
"u.u.s.p.p.p.p.s.~       R.%XoXXXXX.XOXT.$.$.O.o.O.O.o.$.a         s.      ;.@X XXXoX.X.XoX.XXXXX%.o.O.O.O.O.o.o.$.a       g.s.p.s.s.s.s.s.u.s.s.s.s.u.s.s.y.p.s.p.p.s.u.s.s.s.s.e.s.s.s.s.p.s.s.s.{ ",
"s.s.p.s.s.g.s.s.        R.OXXXXX.XXX XF u p | +.X.O.O.+. ..       p.      :.@XOX@X+XXXXXXXXXoX}.O.o.O.O.+.+.o.o.$.>       s.p.s.s.s.s.s.s.s.u.s.d.s.s.s.s.s.s.s.g.p.s.s.s.s.s.s.s.s.s.s.p.s.s.s.p.' ",
"h.g.g.s.g.s.g.g.        4.OX.XXX.XOXR.s s C  .+.O.O.O.X.$.8       u.  O   >.@X4.G d .XXX.X.XoXY.X.O.O.O.o.O.O.O.o.+       s.g.p.e.d.h.s.g.g.s.s.s.s.s.s.s.d.s.h.g.u.s.g.s.h.d.s.g.h.h.s.g.g.h.j.g.' ",
"g.j.k.j.k.k.k.k.y       #.+X XXXoX.XOX|.+.$.O.O.O.O.O.o.+.D       g.      8 &     c oX.XXX.XoX1.X.O.O.O.o.+.+.$.D       ) h.h.g.s.h.h.h.s.h.h.h.h.s.k.g.h.g.h.g.g.h.g.g.h.k.k.k.g.k.c.k.k.j.k.j.k.' ",
"w.y.y.e.p.s.p.j.j.      7 @X XoX.XXX.XoX%.X.O.O.O.O.O.O.o.$.;     k         O d 4.@X.X.XXXXX.X@.o.O.O.O.+. .D +.V       k.s.s.k.g.h.h.h.s.h.s.h.h.k.k.g.g.h.k.k.m.k.c.c.c.k.f.f.p.p.p.f.w.w.y.t.0.` ",
"r.0.9.9.r.[ r.t.0.        R.OX.XXXXX.XoX}.o.o.O.O.+.O.O.o.$.A     9     $ ,. X+X+XXXXXXXXXXX[.o.o.+.O.o.O.| > X +       x.k.g.k.h.h.h.k.k.g.h.k.s.k.c.k.c.M.c.k.k.g.a.u.w.q.q.0.r.9.9.8.8.0.t.t.r.` ",
"y.t.q.t.t.t.t.t.q.8.      d @XOXXXXXXXXXoXI.X.o.O.O.O.O.O.o.+.>         #.$XXXXXXXXXXXXX.XOXI.X.O.O.O.O.o.+.O.i         h.x.k.k.x.k.x.x.x.x.m.B.m.m.c.k.g.u.u.q.  t.0.0.w.q.w.w.t.t.t.t.y.q.t.9.t.` ",
"q.y.u.y.t.u.t.u.y.t.        G 4.oX.XXXXXXXoXT.+.X.o.o.o.O.o.+.} .     $ .XXXXXXXXXXXXXXXXXoX&.X.O.O.O.O.O.O.+.O..       x.x.x.x.B.V.m.c.N.B.m.k.g.p.u.y.t.t.t.    y.w.w.u.t.t.u.w.t.q.u.t.t.y.t.y._ ",
"u.u.u.u.t.t.u.u.u.u.y.        5 %XXX.X.XXX.XoX.X3.+.o.X.o.o.X.+.S ; . Q @X XXXXXXXXXXXXX+X.X+.O.O.O.O.O.O.o.$.A       9 x.B.N.x.C.c.c.k.g.u.u.y.q.w.q.q.u.u.      . $ 1 7 3 .   . u.u.y.y.u.u.u.u.] ",
"u.u.u.u.u.u.p.O               X L OXOX.XXXXXXXXXoX.XQ.Y.2.&.%.+.3.{.E.oXXXXXXXXXXXXXXXXX!.[.X.O.O.O.O.O.O.o.$.s       A.V.V.B.n.g.f.u.u.q.w.u.e.s.p.u.      X < f R..XOX%X{.| C ;   X 6 u.u.q.e.p.K.",
"u.s.s.s.s.p.u.s.p.s.s.y.p.        7 W.@XXX.XXXXX.XoXoX+XoXXX.X.XXXOXOXXXXXXXXXXXXXXXXX X= D +.O.O.O.O.O.O.O.$.6       z.f.y.u.p.u.s.s.s.s.s.u.s.a.    $ G <.W.oX@XOXoXoX.X.X+.$.$.A $   + $ p.p.p.'.",
"s.s.g.s.g.p.y.f.g.g.s.s.g.e.O       @ :.@XOXXXXXXXXXXXXXXXXXXXXXXXXXoXOXOX.XXXXXXX.X+X<.  V $.o.O.O.O.O.O.O.o.+       e.p.u.s.g.s.p.g.g.s.p.s.O   . J .X@X@XOXXXXXXXXXXXXXXX&.o.O.$.+.u       s.s.'.",
"h.g.f.f.j.g.k.g.j.h.j.j.k.g.g.g.        g XXOXXX+XOXXXXXXXXXXX.XOXOXOX4.E.OX.XXXXX.X@Xd   } +.o.O.O.O.O.O.O.|         g.k.g.g.g.g.i.g.g.g.g.    @ R.@XXX.XXXXXXXXXXXXXXX.XoX1.X.O.o.O.$.6       ~ L.",
"k.c.j.j.k.c.m.c.c.c.c.c.n.c.k.k.k.O       < 5.OX4.5.OX.XXXXXXXXX[.-.5 X 4.OX.XoXXX.XOXJ J %.X.O.O.O.O.O.o.$.C       O k.j.k.k.k.c.c.k.        O 4.@X.XXXXXoXXXXXXXXXXXXXXXXX&.o.O.O.+. .s .       X ",
"c.j.m.n.k.j.h.s.f.e.f.j.j.c.m.h.c.j.c.      O <   H $X.XXXXXXXXXG 8 H R.oX.XXXXXXXXXXX@XOX+.o.O.O.O.O.O.o.$.p       c.k.c.c.c.j.c.f.k.c.        <.oX.XXXXXXXXXXXXXXXXXXXXX.X+.o.O.O.O.O.+.%         ",
"c.g.s.e.t.t.t.t.0.q.w.w.q.s.u.s.g.j.c.m.O         8 4.@XOXXXXXXXXXOX@XOX.XXXXXXXXXXX.XXX[.O.O.O.O.O.O.O.o.+.>       V.V.b.S.b.v.b.b.V.v.      H :.W.XXXXXXXXXXXXXXXXXX.XoXT.X.O.O.O.O.O.o.+         ",
"e.w.q.w.u.u.u.t.e.q.w.e.q.u.t.q.w.u.y.e.              g W.@XXXXXXXoXXXXXXXXXXXXXXXXX.XXX[.o.O.O.O.O.O.O.O.o.X       f.p.w.i.i.i.i.g.f.z.    d %XOXoXXXXXXXXXXXXXXXXXXX.XoX1.o.O.O.O.O.O.o.X         ",
"u.s.e.s.s.u.u.u.s.u.s.s.q.q.u.u.p.u.u.u.q.q.f.k.        o J +X+XXXXXXXXXXXXXXXXXXXXXXXXXW.X.O.O.O.O.O.+.=.D         u.u.q.u.u.u.u.u.u.    o }.oXXXXXXXXXXXXXXXXXXXXXXX@XQ...O.o.O.O.O.O.u           ",
"s.u.u.e.s.w.u.s.q.u.s.u.u.s.s.s.s.e.u.p.s.u.u.q.y.i.  .     7 R.@XXXXXXXXXXXXXXXXXXXXXOXT.X.O.O.O.O.o.V 8 $         s.p.u.s.u.u.s.u.)     -.@X.XXXXXXXXXXXXXXXXXXXXXOX;.+.O.O.O.O.O.o.$.;           ",
"s.s.u.s.s.s.p.u.s.s.u.s.s.u.s.s.p.u.s.u.p.s.p.s.u.y.y.p.$ @   . J @XoXXXXXoX.XoX.X.X.XOXY.X.O.O.o.O.o.} A X         p.g.s.p.s.s.a.e.    7 @X.XXXXXXXXXXXXXXXXXXX.X@X#.  8 $.O.O.O.O.X.$.>           ",
"u.u.g.s.p.p.s.g.s.s.s.s.s.s.s.s.g.s.s.s.s.s.s.g.s.p.s.s.u.y..     h OXXX.XoXXXXXXXoX.XOXT.X.O.O.O.o.o.=.C         y.p.s.s.u.s.s.g.    X E.+X.XXXXXXXXXXXXXoXXX.XXX.XS X p $.o.O.O.O.$.}           F.",
"s.h.g.s.h.s.g.h.h.s.h.h.s.h.s.s.h.g.s.g.h.s.p.h.h.s.g.g.g.h.s.      f OXoX.XXXXXXX.XOXK C $.o.O.O.O.o.+.$         s.h.g.g.g.s.s.h.    J @X XoXXXXXXXXXXXXXXX.XoX X@.O...+.O.O.O.O.O.$.>         g.F.",
"h.x.g.h.h.h.h.h.h.s.s.h.h.h.h.h.h.h.h.h.g.h.h.g.k.h.h.g.h.h.h.z.      u 4.oXXXXXXX.X@X:.  | $.O.O.O.+.|                 s.x.k.h.    < oXoX.XXXXXXXXXoXXX.XXXoX}.+.o.O.+.O.O.O.o.+.$.u           h.G.",
"h.k.k.k.x.h.g.k.x.h.h.x.s.x.h.x.s.d.k.k.h.g.k.g.k.h.h.g.k.            K E.oXXXXXXXXXXXXXo @  .O.O.o.+.D           k.h.k.k.        . G 4.XX.XXXXXoXXX.XoXoXoXT.O.o.O.O.O.O.O.o.+.O.8           j.k.G.",
"c.c.m.c.k.k.h.x.x.x.x.x.s.h.x.x.h.k.x.x.h.n.x.k.k.k.m.k.k.c.m.j.      R.@X.XXXXXXXXX.XOX#.p a } O.O.O. .          x.m.m.g.k.m.    J %X.XOX@X+XXX.XXXoXoX[.&.X.o.O.O.O.O.O.O.$.o.>           c.m.m.D.",
"M.M.m.m.x.x.k.k.m.m.x.x.B.B.x.x.x.x.m.x.x.x.x.m.m.m.c.c.M.B.M.m.      4.OX.XXXXXXXXXXXoXY.$.+.O.O.O.o.$.6         m.m.m.B.      v +XXX+XE.<.>..XOXXXQ.2.o.X.O.O.O.+.+.O.O.$. .;           u.t.p.c.D.",
"g.i.c.M.N.V.V.N.m.m.m.m.B.B.B.x.N.N.x.m.m.B.N.m.c.M.M.m.V.N.c.S.      >.+X.XXXXXXXXXXXoX3.X.O.O.O.O.O.+.|         m.N.C.    . K OXoXW.d # $ c XXY.&.O.X.O.O.O.O.O.| O.$.$.V .         l p.u.u.y.p.' ",
"p.p.u.s.m.N.Z.m.N.m.N.M.N.B.N.N.N.B.m.N.m.m.M.N.N.Z.S.b.k.n.f.a.      :.@X XXXXXXXXX.XoXY.o.O.O.O.O.O.o.$.V       V.V.  $ c R.%XOXOX X,.5.Y.3.+.X.o.O.O.O.+.O.o.$.a ; A 8           u.y.u.s.s.p.u.{ ",
"g.s.e.p.e.g.k.m.M.S.N.Z.A.A.N.N.A.A.N.A.N.Z.S.A.V.n.g.p.s.s.p.        J @X.XXXXXXXoX.XoXY.o.O.O.O.O.O.O.O.%.V : > > c ,..X%XOX X[.T.3.1.$.O.X.o.O.O.O.O.O.O.O.+.=.D             p.s.s.s.s.s.p.s.s.' ",
"s.g.s.s.g.s.s.s.s.k.k.c.M.M.N.Z.A.S.V.M.N.j.v.p.p.s.u.s.g.s.p.g.      L @X XXXXX.XoXOX+XT.o.O.O.O.O.O.O.O.O.$.@.$.$.3.{.I.2.1.O.O.X.X.X.O.O.O.O.O.O.O.O.+.$.+.D u +         s.s.s.p.g.h.s.s.s.s.s.' ",
"g.s.h.g.h.f.s.h.j.j.s.g.g.g.k.k.c.j.g.k.g.g.p.g.s.g.g.h.s.u.h.p.      G @X.X.XOX@XOX`.E.T.o.o.+.O.O.O.O.O.o.O.O.O.O.X.X.X.o.o.o.O.O.O.O.O.O.O.O.+.$.$.+.| s ;               h.s.s.s.s.g.s.h.g.g.a.] ",
"h.h.c.k.g.k.h.g.h.h.h.k.g.f.k.j.k.s.f.k.k.h.g.k.p.h.h.h.h.g.g.g.      g @X XoX5.h = . < 2.o.o.o.O.O.O.O.O.O.O.O.O.O.O.O.O.O.O.O.O.+.$.O.$.$.$.+...A i $             g.h.h.  h.h.g.k.g.h.h.h.s.k.g.] ",
"h.g.j.k.k.n.j.f.c.j.k.c.k.j.k.k.c.k.k.k.k.k.c.k.k.k.k.k.k.-       O   f @X XoX;.G K >.`.T.X.o.+.O.O.O.O.O.O.O.O.O.+.$.O.O.O.+.$.=.} A O.D V p > .             k.h.k.k.h.k.h.h.k.h.k.h.k.x.k.g.g.x.] ",
"c.c.k.c.m.c.M.N.M.m.c.N.M.M.m.M.M.c.k.c.k.m.j.k.m.k.i.        k       7 +X.X.XOX%X@XOX+XT.o.O.O.O.O.O.O.O.O.o.o.X.> a =.$.+...D Z $   +               i.k.x.m.h.s.x.x.h.k.x.x.k.x.g.h.k.k.x.k.j.m.] ",
"k.M.Z.m.c.c.j.g.f.f.e.f.f.g.j.j.j.n.M.M.M.M.M.M.m.m.c.m.c.m.m.m.      6 OX.XoXoX.XoX.XoXT.o.O.O.O.O.O.+.O.O.O.$.O..   8 8 $ .                   m.m.c.m.c.x.x.m.m.x.m.k.g.x.k.m.m.m.m.g.c.c.m.m.c.7.",
"j.k.u.t.u.u.t.q.w.q.q.t.t.q.t.q.q.q.w.u.e.g.k.c.C.C.N.M.M.m.M.m.y     < oX.XoX.XXXoX.XoXY.o.O.O.O.O.O.O.O.O.$. .>                       q.a.v.V.A.V.V.c.m.m.B.m.m.m.B.B.k.m.m.m.V.k.c.M.M.B.M.N.N.P.",
"p.u.t.y.u.q.q.s.e.e.u.s.s.t.u.u.w.q.u.u.t.y.9.0.q.e.j.c.b.M.N.N.V.    $ .XXX.XoX.XoX.XOXI.X.O.O.+.O.O.O.O.$.C O             u.u.y.y.    u.u.q.y.z.S.A.A.M.c.M.m.B.B.c.V.B.c.N.m.M.m.M.N.M.M.m.k.g.G.",
"u.s.u.s.s.u.s.q.s.s.u.w.u.u.s.u.s.p.p.e.p.s.u.u.y.w.q.q.q.e.p.j.c.    @ }.XXoXXXXXXX.XoX3...O. .o.+.O.O.$.s         p.w.u.u.s.u.s.u.u.s.s.s.u.u.y.p.j.V.A.A.M.C.N.A.M.N.N.N.A.M.A.Z.V.m.g.s.u.w.p.F.",
"s.u.y.s.s.s.s.e.p.p.p.p.s.s.u.s.s.q.s.s.u.s.s.s.g.s.s.p.u.w.t.t.y.    . W.OX.XXXXXXXXXOX3.X.O.> O Z +.+.u         p.s.u.p.s.u.s.s.q.s.s.w.s.s.s.s.p.p.a.f.v.V.A.A.A.S.Z.Z.M.M.m.k.s.s.p.e.s.s.s.u.F.",
"g.s.s.s.s.a.s.s.s.e.s.s.s.s.s.d.s.s.s.s.s.g.s.s.p.u.s.g.s.s.s.s.s.      R.OX.XXXXXXX.XoX1.X.o.} s V *.u         g.u.s.g.s.s.s.g.s.s.s.s.s.s.s.s.p.u.g.s.s.s.s.g.j.j.k.g.g.g.s.p.p.p.s.s.s.s.s.p.s.F.",
"s.p.s.g.h.p.s.s.h.h.s.s.s.s.k.s.j.g.g.j.g.s.g.h.s.g.g.g.h.p.s.          4.OXXXXXXXXXXXXX%.o.O.$.$.*.a           g.h.s.s.g.g.h.s.h.d.s.h.s.s.d.h.s.s.g.h.h.p.p.s.s.s.g.e.s.g.g.g.g.s.s.l.h.g.s.s.h.F.",
"h.g.h.h.s.h.h.h.s.g.h.h.h.h.h.h.h.h.k.k.k.h.h.k.k.h.h.g.h.h.g.h.8.      ,.+X XoXXXXXXX.X@.o.O.X. .}           h.g.g.g.h.h.h.h.g.h.h.h.h.h.h.h.l.k.h.h.g.h.g.h.h.h.h.k.h.h.h.g.k.g.g.h.x.g.g.h.h.g.{ ",
"h.h.h.h.h.x.x.h.h.k.h.x.x.x.h.k.j.k.k.c.k.k.j.k.k.k.k.h.h.x.h.n.x.      >.OX XXXXXXXXX XO.o.O...a +         % k.k.z.k.x.k.k.h.h.s.k.k.h.x.h.g.k.k.h.h.g.k.k.k.k.k.g.k.k.k.k.k.k.x.h.k.h.h.h.z.x.h.H.",
"x.x.x.h.x.h.k.x.k.c.k.k.m.m.m.c.c.V.V.V.V.V.v.m.k.h.x.h.n.k.k.x.x.      :.+X.XXXXX.XXX{.X.O.O.O.$.+       . .           k.m.m.h.h.x.x.x.x.x.k.k.k.s.x.g.c.x.k.m.c.c.k.c.c.m.m.c.k.c.k.k.x.x.k.k.x.H.",
"h.x.x.x.m.x.x.m.k.c.m.m.M.M.V.k.f.i.w.i.i.~ . & 0 r T U W ! ! ).R       K @X.XXXXXXX+X3.X.o.O.+. ..       U &X/./.! E T t & X     v.m.c.g.m.k.m.m.m.B.m.m.m.M.M.M.M.m.M.M.N.M.c.k.m.c.V.B.k.x.x.k.D.",
"B.m.m.B.N.m.B.M.m.M.N.C.c.i.y     O @ r W (./.W E W E U P j w 0 =       K $X@X@X@X+X%X3.+.$.$.*.S         X & q r P E /.:X=X&X! I t   k.m.m.c.B.m.M.M.m.M.Z.c.f.e.9.9.9.t.u.h.x.N.N.N.c.k.B.M.B.k.D.",
"N.V.m.B.N.B.M.N.S.c.k.u.      5 x n W ;X<X,X;XQ 1                       7 :.Q ;.;.>.,.#.C V z h >                   = T ;X;X:X<X1X=X=     M.N.A.c.N.A.N.j.w.8./ ( 8.8.8.r.9.[ r.i.k.Z.M.N.N.N.B.N.D.",
"A.A.A.C.A.A.A.m.s.t.9.~       0 n n B R W ^._.<X>X_.E r & .                                             o q r I ! &X>X<X>X:X&X! b o         M.V.c.j.e.0.[ ( [ 9.8.q.q.9.t.q.t.t.9.9.t.h.M.A.A.M.C.D.",
"B.B.N.x.h.e.e.w.0.r.t.    O       . X # $ 3 0 x B ! _.-X;X*X).6.W R P j w 0 q * * 1 * 4 0 w r T U E 6.&X;X,X1X1X,X;X).! I t o             k 9.9.8.[ 8.8.8.9.q.t.w.w.t.t.t.[ t.t.y.q.0.t.q.s.k.c.V.7.",
"u.y.t.y.q.0.y.t.t.u.u.u.y.u.                          o 4 r I ! /.=X;X>X<X<X<X<X>X:X;X;X:X:X>X>X>X:X;X&X6.W T w * .         .           9.0.9.0.q.0.9.9.q.u.u.u.w.w.e.u.s.u.t.u.u.u.s.r.q.u.0.q.u.] ",
"u.u.u.u.s.u.s.u.u.p.u.u.u.q.u.s.u.p.      % % X . O X             . = q w T U E ! &X;X-X-X-X=X-X&XE w =         o * w T E /.!       p.p.p.u.u.u.a.u.p.s.u.q.w.s.w.w.w.s.s.t.s.u.u.u.u.u.u.u.w.e.u.` ",
"u.s.s.u.s.u.w.s.s.p.p.u.u.w.s.s.p.s.      % 3 3 2 9 N m m m m m m n x x x e x y e ^.-X-X-X-X-X-X;X-X&X&X&X&X&X&X-X;X:X>X:X<XU       s.s.s.e.g.e.s.s.p.p.p.p.s.p.w.s.s.s.u.s.s.e.t.p.s.s.p.s.s.s.a.` ",
"s.s.s.s.g.p.p.p.g.g.s.g.g.e.s.s.s.y.      O 2 2 2 6 m N B N N N N B N N B N N B n ^.;X=X-X-X-X-X-X-X-X:X:X;X;X;X;X-X-X-X=X>Xt       h.h.g.f.g.g.g.h.s.s.g.g.g.p.s.s.s.g.s.s.s.e.s.s.s.s.s.s.s.p.s.' ",
"g.k.g.g.k.h.h.g.g.h.g.h.h.h.g.h.g.s.g.      , 3 2 2 x N m N N N m N N M N N N N n W -X-X-X-X-X-X-X-X-X-X-X-X-X-X-X-X-X=X-X&Xo       k.j.k.c.k.k.k.k.k.k.h.g.h.h.h.h.s.s.s.h.h.s.g.h.s.s.g.h.k.g.p.L.",
"j.k.k.g.k.k.k.k.h.h.k.h.g.x.h.h.h.k.k.      + 3 2 2 e N m N N N N N N N N N N M n Q -X=X-X-X-X-X-X-X-X-X-X-X=X-X-X-X-X=X:X6.        f.f.e.f.f.g.j.j.c.j.c.k.c.j.h.h.g.x.s.h.k.h.k.k.h.k.k.k.k.k.k.].",
"j.c.V.m.c.k.c.c.k.k.k.m.x.k.x.g.x.g.k.      O 2 2 2 9 m N N N N N N N N N N N N m N &X;X-X-X-X-X-X-X-X-X-X-X-X-X-X-X-X=X:XI       O r.t.9.t.r.t.0.e.e.g.k.M.M.c.x.x.m.k.k.c.x.x.k.x.k.j.k.c.m.B.c.].",
"m.c.c.c.m.N.N.m.c.c.M.m.c.B.m.m.m.B.m.k.      : 2 2 3 n N N N N N N N N N N N N m m ).;X-X-X-X-X-X-X-X-X-X-X-X-X-X-X=X=X:X0       u.u.t.u.u.u.t.e.0.t.q.w.e.f.m.N.M.m.k.c.M.c.m.m.B.V.M.C.M.M.m.B.].",
"w.p.t.u.a.g.g.k.M.M.N.N.m.M.N.m.B.N.B.N.      % 3 3 2 x B N m N B N N N N m N N N n ^.;X*X-X-X-X-X-X-X-X-X=X-X-X-X=X-X;X&Xo       u.u.u.u.u.u.u.e.u.s.u.p.y.y.u.s.m.N.Z.A.Z.M.N.N.Z.N.N.k.k.i.y.u.K.",
"s.p.u.s.p.w.y.p.u.s.g.c.j.V.A.A.A.N.N.A.Z.% O O + % 2 7 B B B B B B B B B N N N N m Q ;X-X-X-X-X-X-X-X-X-X;X;X:X:X>X:X:X!       . u.u.s.u.u.s.s.u.u.s.u.p.u.u.y.p.e.e.f.h.c.c.M.f.g.u.s.e.u.y.s.u.K.",
"s.p.u.u.s.p.p.p.u.s.s.p.s.s.g.k.m.k.M.N.B.m.. .         o # * 5 0 e e x n n M N B N Q :X:X:X:X:X>X>X>X:X;X-X&X(.W P w & O       s.u.s.g.s.s.u.s.s.t.s.s.s.p.s.u.s.s.s.q.u.u.u.s.u.s.s.s.s.s.s.y.u.'.",
"p.s.s.s.p.s.s.s.s.s.u.g.s.u.s.s.p.u.g.y.u.s.u.s.                          . o # & 5 5 U E E E I I T b w q = X                   s.s.s.u.u.s.s.d.s.s.s.g.s.p.s.s.s.e.h.s.s.s.s.s.s.s.s.s.u.s.s.s.l.K.",
"a.a.l.l.a.d.l.l.l.l.d.d.d.d.l.d.l.l.l.l.l.l.s.l.z.l.a.                                                                  d.l.d.d.d.l.l.l.l.d.d.d.z.d.a.d.d.d.d.d.d.d.s.l.d.l.d.a.d.l.d.d.d.d.d.l.l.K."
};
