/* XPM */
static char *_508776fdac94d0fdd65077a7fb0925fHlD67Vwhwhv5GoEQ[] = {
/* columns rows colors chars-per-pixel */
"98 83 182 2 ",
"   c #BC761A",
".  c #BE7B1B",
"X  c #835F26",
"o  c #84612C",
"O  c #886429",
"+  c #926F2F",
"@  c #94722C",
"#  c #886534",
"$  c #8C6934",
"%  c #916F38",
"&  c #947336",
"*  c #96743A",
"=  c #C27D1C",
"-  c #997640",
";  c #9C7A43",
":  c #9F7C49",
">  c #A5873E",
",  c #C5821D",
"<  c #CA851E",
"1  c #C7891E",
"2  c #CD8A1E",
"3  c #D28C1F",
"4  c #D4911F",
"5  c #D9951F",
"6  c #D5991E",
"7  c #D9991F",
"8  c #CD8A20",
"9  c #D38E20",
"0  c #CF9120",
"q  c #D69221",
"w  c #DA9521",
"e  c #D69A22",
"r  c #DD9A22",
"t  c #DD9D28",
"y  c #E29D23",
"u  c #E29F28",
"i  c #DEA223",
"p  c #DFA926",
"a  c #E5A223",
"s  c #E9A524",
"d  c #E5AA24",
"f  c #EEAA27",
"g  c #EDA925",
"h  c #EBAC24",
"j  c #EBAD24",
"k  c #EAAC25",
"l  c #EAAE24",
"z  c #E9AD26",
"x  c #EDAD24",
"c  c #EDAC24",
"v  c #EEAC25",
"b  c #EFAC25",
"n  c #EFAD25",
"m  c #EDAF25",
"M  c #EFAF25",
"N  c #EDAD27",
"B  c #EDAC27",
"V  c #EFAD27",
"C  c #EFAC26",
"Z  c #EFAF27",
"A  c #ECAB25",
"S  c #E4A129",
"D  c #E5AC29",
"F  c #EEAE28",
"G  c #ECAE28",
"H  c #F0AB25",
"J  c #F1AD25",
"K  c #F1AC25",
"L  c #F1AE25",
"P  c #F1AF25",
"I  c #F0AE25",
"U  c #F2AE25",
"Y  c #F0AC26",
"T  c #F1AD26",
"R  c #F1AC26",
"E  c #F1AF26",
"W  c #F1AE27",
"Q  c #F2AE26",
"!  c #F2AF26",
"~  c #F3AF26",
"^  c #F3AE26",
"/  c #F1AE25",
"(  c #F0AF28",
")  c #E7B127",
"_  c #EBB024",
"`  c #EBB125",
"'  c #ECB024",
"]  c #EEB124",
"[  c #EFB124",
"{  c #EEB025",
"}  c #EFB225",
"|  c #EFB324",
" . c #ECB227",
".. c #EFB526",
"X. c #EDB225",
"o. c #EEB927",
"O. c #E6B228",
"+. c #EFB128",
"@. c #ECB429",
"#. c #EEBB29",
"$. c #F1B025",
"%. c #F1B125",
"&. c #F0B125",
"*. c #F3B025",
"=. c #F1B325",
"-. c #F2B225",
";. c #F3B225",
":. c #F1B026",
">. c #F0B026",
",. c #F3B126",
"<. c #F2B127",
"1. c #F3B227",
"2. c #F3B326",
"3. c #F4B025",
"4. c #F4B125",
"5. c #F5B126",
"6. c #F4B126",
"7. c #F4B226",
"8. c #F5B226",
"9. c #F5B326",
"0. c #F1B525",
"q. c #F1B625",
"w. c #F2B625",
"e. c #F3B625",
"r. c #F1B526",
"t. c #F3B526",
"y. c #F1B626",
"u. c #F3B626",
"i. c #F4B426",
"p. c #F4B526",
"a. c #F4B527",
"s. c #F5B626",
"d. c #F4B726",
"f. c #F3B426",
"g. c #F8B627",
"h. c #F3B826",
"j. c #F2B827",
"k. c #F5B927",
"l. c #F6B926",
"z. c #F4BB27",
"x. c #F6BB27",
"c. c #F7BB27",
"v. c #F7BC27",
"b. c #F5BA26",
"n. c #F9BC27",
"m. c #F4B528",
"M. c #F3B528",
"N. c #F8B628",
"B. c #F5BD29",
"V. c #F7BC28",
"C. c #F6BD28",
"Z. c #F6BC29",
"A. c #F4BC29",
"S. c #F9BD28",
"D. c #FBC127",
"F. c #F5C12A",
"G. c #FBC329",
"H. c #FEC92B",
"J. c #A18045",
"K. c #A98747",
"L. c #AA8B44",
"P. c #A6854D",
"I. c #A8874F",
"U. c #AC8B4C",
"Y. c #B08F4C",
"T. c #AF904A",
"R. c #B3964C",
"E. c #A68551",
"W. c #A88751",
"Q. c #AE8E52",
"!. c #A98A51",
"~. c #B39650",
"^. c #BA9E57",
"/. c #B19159",
"(. c #B7965A",
"). c #B3935D",
"_. c #B8975F",
"`. c #BA995A",
"'. c #BB9B5B",
"]. c #BEA05A",
"[. c #B89762",
"{. c #C1A363",
/* pixels */
"r y a y a y s y y s y y s y y s S a s s y y s s w r a y y a y y s y y y a s s y y y y y s y y s y y u s a y s s u s y y y y s s S s y s y y s s w w s y a y s u s y y y y y s s y y u y s y y s a /.",
"y a s a s s a s s y s s s s y y s s y a s y y s a y a s a g s s s y s s s y a s y s s s s a s s y y s y s s y S s y s s y s y y s s y s s y r s a y a s a s y s s r s s s s y s y y s s s s s s s (.",
"A +.s a s s s s s s s A s s s s s s s s H s y s f s s s s a y A s s H s s s s s s A a g s s A s s F s y s s s s s s s s s s s s s s s s H s s A b s s s A a r g H s s s s s s s s A d g s s b A A `.",
"0.-.l -.b A A I H s s s f f H H s s f R s s H a A A s a H s s -.A A H s b ^ s A A A d b s s s s s H s H R s s f H s s s H s H H s a ~ A s s H a b b g s { b { -.s A H s s H g s A A a b H A { ' ' '.",
"a d { -.d.-.d -.I I I I a s ~ A s s H I s s I s H s A A I I ' ' ' 0.d.0.c.0.-.0.{ b x s A a -.s s ~ +.A H A a I H R I H a s ~ H s A I I A A &.x { { ' ' c.0.0.0.0.0.d.e.d.-.I -.b b 0.{ l d g y r Q.",
"w w w w r d ' 0.c.5.d.-.H ~ ~ R H I -.I F ~ I ~ I N.-.l 5.c.v.l &.l A A d j.0...v.v.d.0.&.5.5.5.5.^ 5.^ H A A A ~ ~ A ^ H I N.I b 5.d.-.&.d.&.j.C.k.v.l ' l z a A x x &.b v.0.{ n.k.{ d r w w w w : ",
"y 9 w y w w r y b c.n.c.c.d.N.5.g.5.5.-.5.5.m.d.~ m.c.v.c.{ i S w r w w w r r d b ..| l.n.n.' &.d.A I 5.N.d.5.5.N.5.^ N.m.5.5.5.d.d.d.0.0.n.n.w.l a a w r r w y w w w w r a d g s w 4 w w y 4 w y P.",
"y w w w y y y 5 w w s -.C.C.S.S.S.k.l g.g.c.D.g.j.S.c.a r r q r 5 y y y w y w 5 y 7 7 i l v.v.c.c.d.d.-.N.g.N.d.N.-.c.g.k.N.c.S.g.D.' D.0.l a y e w r w w r 4 r w y r r r r w w y y y 4 7 y y y r W.",
"S a w y y a a r y r y y y g b j.S.S.S.D.j.v.0.d.-.s y w y a y y y w y y w r y y y y y r y y s A 0.F.o.D.D.D.D.c.g.k.n.n.D.D.G.G.D.w.l a 4 r w y y y y y y s a y y w y y r r y y y y y y y y s y y I.",
"y y y y y a y y y a t y y y r y y a a a a y s r r y y y y y y a s y s s y r s y r u a y u y y w y a r g { c.n.D.D.G.A.v.n.j.l A y y 7 r a y s 7 y a r y y y 7 a s a y s y r u y y y a y y y y y y !.",
"s s s s s y y s s g a a s y y s a s y y a a a a y s s s a y s y y y y s s s s y a r S f y s s s a s y y y y r y a d a a s r 7 a a s a a s a s a a s a s s y s y y s y s s s s y a r S f s y s u a !.",
"s y s s s s a s s s s s s y A s b a s A A s y s r a s s a t s y y s y s s y s s y g y s y s y s s a g s s s a s s s s s a y A A A d d b l A d A a s A A a y s y y s y s s y s s y s a s y s y s a !.",
"s a f s s B a t s a s A s a g g b l g A A A b A s g g s b d a H H s s s A a s s s A s s A s a s s a A s s F s y s a s A s a A A ' ' 0.| 0.| j.0.| 0.&.' ' l a I A A A s A a s s s H s s ~ s a s s U.",
"s s s A H s g b H A A -.I b l { { ..l -.&.' _ _ -.b l b x b I s y I R s s R f f R s s H R H S a s s s s s s s A H s A &.I A &.&.w._ i 5 2 < , < 0 6 i | l.w.0.l i I I A s H H A A s s A f f s a I U.",
"A 1.I H I I -.-.I x d ' 0.v.v.v.A.#.o.F.v.v.o.j.c.0.{ 0.' &.-.x A I 5.A s I A A H s A t A R A R R ~ I H H I I I I A a 0.0.l.l.d 4 ,   . , .           , 2 a 0.g.{ &.0.A A -.b I I H A y A I H A s Y.",
"H 1.I I 5.d.d.0.0.{ v.v.A.p p e 0 1 2 1 1 0 6 i D @...A.v.v.c.c.d.0.-.-.s -.A N.N.A I ~ ~ ~ ~ ~ I I H I ^ d.5.;.&.x e.l.l.i 4 = , < 3 2 < 3 3 2 3 2 < , = = < y &.v.n.d.A { l d.m.I I -.~ ^ N.I A Y.",
"k.c.d { c.o.0.n.n.j.) e q , < = < = < = = 8 = = = = 8 2 q i  .j.G.n.v.F.0.b d.5.d.g ^ g.-.^ 5.^ N.N.g A g.-.{ c.d.n.n.g e < 3 3 8 3 9 9 9 q 9 9 9 9 9 9 9 = < = 2 4 z D.v.0.c.d.c.l { c.-.d.d.0.N.R.",
"c.c.c.D.D... .d t q 9 2 9 q 4 w w 4 q q w w 3 = < < < < , 8 , 2 6 i d D.n.c.S.-.g.g.g.g.A d.g.g.m.N.5.c.n.' 0.n.n.l w 8 3 9 q 9 q q 9 9 w 9 8 9 9 9 w 9 9 y 9 9 2 , , 3 a ' n.c.v.D.g.g.{ c.g.g.k.R.",
"S.C. .g S r q 2 9 w w 9 9 w q w w 9 w w 9 w w w r q w 9 2 2 , < < 2 < 4 d 0.D.D.D.S.S.S.c.n.c.c.d.c.0.S.n.G.g.a r q w 9 9 w w w w 9 w q 9 q w w w w w 9 9 9 9 w w e w 3 2 3 w y { v.D.D.D.G.D.D.c.R.",
"y w q w w w w w w 9 w w w w 9 t w 3 w w q w w y w q w r q w w 4 4 4 3 2 < 2 w d { D.G.S.S.D.D.n.D.D.n.G.c.g r q w 2 w w w w 9 r w 3 w w w y w w w q w y w w w q r r w r w 4 w q 0 w r i a a s a y ; ",
"r w y w r 4 4 w y w r w y w w y w y y y y w y w w q y w y w y y w w w 2 9 9 9 9 q w a l 0.D.C.c.S.0.A y y 3 4 y y w r r w y w w y y w w y w r w w 9 y y w w w y w w r q w y w w r w w w 4 y w 3 w ; ",
"w w y r w y y y w y w y y a y 7 y y y y y w y y y y w y y w w y r y y 5 y y w w e 3 4 e q w r t r w y 5 w y y y y w w y y y y y y y y y y 5 y y y y w y y w y y r y r w y y y y r r r y y y y y y ; ",
"y y y y y a y y y y y y y y r y y y y y y y w y s y y y y y y y y r y a y y y a y y y y r y y y y y t y y a y y y r y y y y y y y y y y y y y y u y y y y y y y a r y y y y r a y r y y w y y a r % ",
"s a y a y y s y y s y s y y a r w y y u u y y y y w y y y y y s s w y a y a y a y a s y s y u a y a y y y y y y u a y s s y y r 7 u y s y y y y y y y y y y y s s w y a y s y a a s a a a s a a a & ",
"a d ' a b g l l a l a a s s s a y s s y y s a a a y s s s u s y a s a y s s s s r s s a s y s y s s s y a a a a y s s y s s s s s s s s y s s a a S g a y s s s a a a a A b A A y l b  .l d l d l * ",
"4 4 e 5 r y r d a l  .{ ..l a -.s g g s S s y s s A A a a s s s s s s s s s s u s s s B s s s s y s s s A s s g s s s s s y y H a s s y y s y s s g b a s s s H 1.I { { l l a i y y r r 4 3 q 9 2 # ",
"8 3 < < 8 = 8 8 2 < 3 w r i a { ' &.^ I I s s A y s s s s F s s ~ A A f R s s H s s A r y f f A s s a s s s s f s a s A f B a s s s g f R a s A a A x x -.0.A A l a r r w 3 2 < 8 < 8 = < 3 9 9 2 o ",
"q 9 3 3 9 9 9 9 3 2 9 9 2 9 2 2 4 7 A ;.d.0.-.I A I H H A s ~ g S A s s H H H A s H A A f H f a s R A H H f f H H s H f s ~ H H A A A b I F -.m.0.' { l a r w 9 8 8 2 < 3 3 3 q 9 9 9 9 3 9 9 < 9 O ",
"3 9 w 9 9 w q w q 3 9 9 3 w 9 3 4 q 8 8 e a j.C.c.5.0.5.I I ^ ~ A ^ H I ~ a A ~ I H s N.~ I I s H A ~ ~ H ^ ^ 1.^ I A I ~ N.b A -.k.-.b c.d.-.A a r w q 9 3 9 q 3 9 q q w 3 9 w 9 9 3 w q 3 e 9 9 X ",
"q w r w 9 9 w w w w w w w w w 2 w q w q 2 8 2 r D { @.0.S.g.d.0.N.5.5.m.N.H H N.5.5.N.a H ~ ~ N.N.~ N.~ H s 5.5.^ I I d.F m.c.b v.o.j.l a r w q 3 3 3 3 q w w w w w w w w 9 q w w q w 9 q q w w r $ ",
"y w w r w w y q 9 r w w q w r r w r w r w 5 4 3 q 9 e d ..#.D.G.b 0.0.N.c.N.N.N.g.d.N.H N.N.A I N.N.~ N.N.N.c.+.I n.n.D.A.v.j.) a r 5 w 9 q w w y r r r w w w y 9 w q w y w w w y w y 3 w y 4 q w ).",
"w y y w y r w y y y y e w q y y y a r y S r r y r r w 3 9 2 r ) ) A.D.G.g.d.S.5.b g.N.c.N.g.g.N.N.c.N.c.n.n.c.G.G.G.#.D i 0 w r w a y r S r r w y w y y y w w y 4 w w y w w y w 9 w y y w y w r r [.",
"y a y a a r 7 t i a y a d r y y y 5 a a y r a r y a r r r r r 2 3 r d z @.F.F.#.G.G.G.H.G.G.G.D.H.H.G.H.H.#.p ) p r 5 4 7 7 y a y 7 a y y y y r y a 7 r S y a r r y y s y y y 4 y y y y y y y y y [.",
"s a i a a a A d d h s d g a a s a 7 a a a a a a a a a a a y a S r r 5 3 4 w r i D ) @.O.@.A.#.) D ) p i r 5 6 4 7 a a A x a a s a 7 s a a a a a a s a a a y a a a y y y y a a a y a a r y a a d r '.",
"d d A i ' | { { ' | 0.' ) _ l l l b l a s l s s a a A a g a g a a a y s r 7 r r w 7 4 5 r r r r w r r 4 y d g a A s A a d l A A l x g d s A s s a d s s d a g a s a y s r s s s s s i a s s A a a '.",
"h ' o._ d d s a i 7 i a d _ { l | d l &.i ' x x A l a a A g b a s A s A s s A A A s A S a g d l a A l d g l {  .l d x x l | ' d ' i d ..i ' x x d A s a g g b a s s A A a s s A A A A s A A x { x '.",
"' d y 5 9 9 9 8 3 3 4 3 9 w e w d d | | 0.0.-.l ' A l x l b g A I I b s A H A I I H -.g I I I -.{ { -.-.b ' 0.{ ) j.F.j.#.#.#.#.#.#.A...| { ..b I A b { b { A A I b A A x I I A I I { g &.&.&.0.0.].",
"5 5 3 4 w w w q 5 3 w 5 9 w q 9 3 w e 6 d j.v.| c.x 0.-.{ 0.l { -.0.I x 0.d.A A 5.I -.-.-.0.x d 0.d.l ..v.v.C.o.) p i y e w w e r t p D #.F.F.@.e.x 0.&.{ 0.l -.-.-.I x d.0.A b 0.&.0.d.0.j.w.d x !.",
"w r 4 y w w q y y q 5 w 9 w r w y w w w 3 3 i d c.D.v.c.j.{ c.0.k.m.5.d.d.d.d.5.x -.l c.d.d.| ..g.D.v.F.#.D e e w q w w 3 w w w w w 4 w r r @.A.F.D.v.j.j.{ c.0.k.m.5.d.m.d.d.d.' 0.' n.n.z.z r w E.",
"y y w 5 y w w w q y y y w y w w y 5 4 y y w w 3 4 6 { v.D.n.c._ c.c.c.l d.d.d.S.0.d.d.c.c.c.A.j.A.o.p e e 3 4 r w r w r w r y w y w w r r r w r a p F.F.G.C.c.d v.n.c.l c.0.c.D.j.D.v.e.A 7 q q 4 I.",
"y y r r y y r w y y w y y w y y w w y w r y w y w q w r a l v.G.D.D.G.D.D.n.D.D.D.D.D.G.c.A...i r 4 3 9 w y y r y y w S r 5 y y y r y w r y w r y w y d ) #.F.G.D.D.H.F.D.D.F.D.j.x a r r y y r r I.",
"w w y a r y y a y y y y y r y y s y y y y y y s y r y r 4 q 7 r a z C.D.D.D.G.D.D.j.l d d w 4 w e 4 y y y y y y y y y y y y y y a y y y y y y a y w y y y a a l ) z 0.j...l l a a y r a r a y a a P.",
"a s a r s a y s s y s s s s y y s s y a s y r s a y d a s s y r 7 4 w r i 7 r r 7 r w w 5 5 r y y s a y s y a a y y s s a s y y s a y a s y r a a y d a s s a a d a a g A a d g A l A a a a g a a I.",
"s b a g s s s s s a y s s s s s u s s s s s s a f s a a s s s g s a a r r y 7 r r t r a a a s s s s a s s s s s s s y A s b A s a A b s s s s g b s s a A g A ' l ' ' l d l l l ' ..d ..l g l l g U.",
"d g g A s s S A A A s s s s s H a a A s a S A a A g a a A A A x a A b A l g g g A s s s s r s S a s g s s s a b A A s A s A A x a a I x l a x a A A g d ' &.0.w.d i y 4 r w q w 4 7 y d  .d { d d T.",
"' -.0.I ~ A s I H H ~ H a A ~ A a H ~ I g g A l b b -.g I I -.A ' { -.b { { b { b x I A g b -.b A H 1.H A s s H I I 5.I a ' -.&.d ' 0.&.A x ' ' -.{ 0.' j._ d 2 2 3 9 3 q q 9 w q q 9 9 4 7 { { 0.L.",
"c.0.0.d.' { b x 5.-.5.I ^ N.^ I I ^ 0.I -.5.&.5.-.-.0.' d.d.d.0.d.c.0...l j.{ l 0.j.-.-.-.5.I I ^ I I ~ H I b x 5.5.0.e.j.v.c.c.c.l.n.0.0.c.w.v.v.v...i r 2 8 9 4 w w w 9 w 9 9 w r w w w w 9 y l L.",
"a r _ c.n.c.j.c.d.-.d.5.j.-.d.5.N.m.b -.5.d.g.0. .c.g.0.j.A.o.F.C.F.F.F.G.G.v.C.n.{ { { d.d.b { 5.d b 1.N.d.d.d.d.0.n.n.F.| d d d _ l ' 0.j.j.l i 7 3 < 8 w 9 y r y w w w y w r r w 9 w r r w 9 w - ",
"r r r r &.n.D.o.v.0.S.c.k.k.c.S.c.c.b c.j.d.c.n.F.D.F.#. .D i t r r r S i D A.#.F.C.D. .c.n.S.c.k.c.N.-.k.c.c.j.v.A.j.D e 4 4 w 4 q < q 2 4 3 3 9 3 q q w y w w w w r y e r w w r y r q w y y w r * ",
"a r e r y a l { v.D.S.S.D.G.S.S.S.D.D.D.D.S.G.F.j.G d r y y r y S 5 y y w q y y D #.F.G.G.G.C.v.D.D.{ S.D.G.G.G.#.i 4 3 4 y y y y y y r w q e 5 w r r y y y y y y w y y w w y y w y y y y y r y y * ",
"y y y y y y y y a g l -.c.j.v.G.G.H.F.j.C.G F r w y w y a y r a a y y S u r y y r w y D l #.A.F.H.H.H.G.G.F. .i q 7 r r a r r a a a r t a y a r y a r y s y r a s y y a y y y y y r a a y y y y y * ",
"s a a s s a 7 s a d a y a a g b l d a a a y r a a a a s y r s r r a r s s s s y y y y s r y y S d d D D i w 4 w r S a a A a s a g a a s a s a a y y s s y w s r y u r a s s s y y y y s y s s y r % ",
"s s b A a l s a A s s A d r A A l a a A A s a s y a s s s a a a s s a s a i s s a g a s a a y s y y a y y a d r a A s A a y x A { d a b g s a g r a s s s S y a s s s s s y s s y B a s s a a A s @ ",
"A y x x b l d d x d x ' A d A A x x A A A A -.x A A A A A g a g s A A s g g s A s A s s ~ s a s s y s s g B a a A a x b l d x x { { { l l l { b b x A A A A s A s s A s A s s f s H s A b A a d A + ",
"' ' l ' 0.| j.v.w.0.' v.w.w.0.0.c.| l ' ' -.A l I A A b g { 1.g r I I s s I I A H s s s A H g s ~ b d A b A b 1.x &.d j.j.j.A.#.#.#.o.A.j.-.d b -.l s b A I I A y I H s s I I A I s s A b I A l -.@ ",
"h z.n.w.| l d a i i 7 i d a d l d  .0.c.j.c.e.j.d.d.{ -.{ 0.{ -.-.-.-.I s I A 5.I I A d I I I ^ I 1.N.I b 0.0.0.0._ o.#.) p i 6 e e i D @.A.j.j.0.-.{ -.x I I 5.I I I I d b A 1.-.I I d ' &.-.0. .L.",
"g A w q q r q 9 4 3 q 9 9 8 9 8 3 2 4 q e a l 0.v.F.n.j.c.0.d.0.m.d.d.0.l -.I d.d.l I 5.d.;.-.-.-.d.l ' c.A.c.n.F.@.d q 9 8 9 3 9 8 q 9 8 y G A.G.C.k.@.0.{ 5.d.m.d.m.d.g { { c.k.l { c.0.c.v.v.j.R.",
"r w 9 q w 9 3 y w 5 r w w w w y w 9 w w q q < 2 4 7 d { 0.j.D.n.c.c...D.d.{ g.d.g.0.d.g.I 5.g.d.k.c.-.j.c.| o.#.e 4 w w w r w w q 9 w w w w 8 w D A.H.B.c...c.d.j.d...C.c.b g.0.C...c.n...c.0.a y E.",
"w r w w y w w 4 y y y 3 9 y y w r r r 7 r r w w 5 4 3 3 3 6 w A { A.A.D.D.D.S.0.n.n.n.v.d.n.n.n.d.g.j.D.H.o.i , 4 y r 4 q w y w r r r y y w w w e r B A.H.D.0.S.g.C.0.S.n.D.G.A.D.D.k.1.a y r w w E.",
"y r q y y y y w y 5 y w y y q y y 3 y y w y y y y y y r 5 w 4 3 q r 7 d 0.j.D.G.G.G.D.D.D.D.D.D.D.G.F.F.i 3 2 2 r r y 5 y y w y y 9 r y w y y y y w r r i ) A.D.G.H.D.D.D.j.v.0.g a y r r r r y r P.",
"a y y y y r y y y 4 y y y y y y y y a y y a a y r w y a y y u y y w w 9 3 4 7 a z 0.v.A.F.H.F.F.F.@.r 4 3 4 2 r y w a y y y y y y y y y y y s y r r y y y y y s d d l g a r y r w y y r y a y r y P.",
"y r s y s r y a s s y y y u s s a a a a a r a a y a y s a r y s y y y w y y r w 4 4 e r i i r r r 2 4 e r 4 4 a s s y y y s s u s a y a y y y u y y u s s r w y y y S 4 a a s a s y y a a a y y s P.",
"a s s a y s s s s y s s s A s s A A A A A s A A A s s a s s a s s s s s s s a s y y y a 5 7 5 7 r 7 a 7 r a s s a a s s s s s s s s s s s s s s A s s a s s a s s s A a s a a g a a s G y s s s a J.",
"s s a s s H A s A A A A A H s A a l x x x l a b b A A s A H s A b r s H s s s A H s A s s A A g A A a b l b b g l g A A H s s s a H s s H s y A H s s s A A A l b a g { x A A b I s A s s s g f s J.",
"~ R H s A s b b l b b b { { m.{  .j.A.v.Z.m.-.-.b d I a b b b b f s g A A ~ I b g b I A I I I l 1.+.-.d b d b { ' { b x { x -.A a I b I I b b I A a I a b { ' -.' A _ ' -.0.-.-.g { -.b b A H g I K.",
"s I ^ A 5.-.-.-.g -...0.c.v.j.) i e 0 e r ( @.F.c.0.k.0.0.-.-.-.I I b I I ~ b b d I -.m.0.l 0.-.{ c.c...v.c.w.c.' ..0.-.0.-.0.j.-.-.d.{ a d.A -.5.0.0.d.-.0.e.c.n.c.w.w.v.S.j.0.l { 0.0.5.l -.b A L.",
"m.d.-.d.m.d.d.j.k.c.n.n.@.q , , = = , = = = 8 y o.F.n...-.k.-.d.c.N.m.d.m.5.5.-.c.d.k.{ -.S.H.S.@.A.o.@.` @.j.A.v.v.D.n.D.j. .n.{ ..c.0.0.d.{ d.| j.v.w.c.D.{ i 6 < < 2 9 w d I S.n.v. .{ d.k.d.b L.",
"c.c.-.k.g.j.k.S.S.l A w 2 8 < < 8 < 8 8 8 8 = = , p F.G.n.k.g.d.k.c.d.d.c.N.g.c...n.D.A.#.) i q 2 , . , , , , , 1 2 5 y d ..0.n.D.D.n.D.D.j.n.S.` D.D.n.d 4 ,   . , , , 8 = = 8 e b D.A.c.g.c.d.n.L.",
"D.S.D.D.G.G.G.0.y 8 < < 8 9 3 8 8 9 8 < 9 9 9 9 8 < q D F.F.G.n. .S.c.c.S.v.D.G.D.F.D e 9 8 3 = = 8 8 3 2 4 9 < < = = = = , , 2 4 r d d { c.j.j.' a 7 2 =   , , , 3 3 < 9 3 9 9 8 < 9 s c.D.G.j.S.L.",
"k.j.C.b A 7 w q 9 9 3 9 9 9 9 < q q 9 8 9 9 9 9 9 9 9 < q D @.H.H.H.G.H.H.F.#.#.p q 8 9 9 9 9 9 w 9 w 9 2 2 9 w q 3 3 q 3 3 < = 1 < = . < , < < , = , , < < 3 9 4 q q 9 9 < 9 q 9 3 2 9 9 r g ..c.> ",
"w 9 w w 3 3 q 9 9 q q w 9 w w 9 q 9 9 q 9 9 w w w q 9 9 w 9 q e i d z D D t w q 9 w r 8 9 q 9 q w w w w 9 3 w 9 9 w 9 w q w w 3 e 3 4 q 2 2 2 2 3 2 < 2 3 q w w q q w w w q q q w w y 8 9 w 2 4 e # ",
"w r w w w r w w q y w w w q r r y y w y y 9 w w y y r r w q w y 3 9 3 5 w 4 w r q r w r w y 9 w y w w r w y w e q y w w e 4 r y w y w r r 5 w w t w r r w 4 w r q 4 9 w r w y w w w w w w w 3 e r o ",
"q y y r y 5 4 y y r r 5 r q y y y y r y y w y r w y y w y y y y 4 7 y y r w y 5 4 y r y y r y r y y w y y w 4 y r r y w r 4 y y y a r y y 7 y 7 y a r r r r y r 5 5 y y r 5 y q 9 r y y y y y y r O ",
"y a y y S y r r a S y a a r y y y q y a y y y r y u 5 y y y a w a a s a a a a 7 a y a y y y y r y y y y y y y r a a a a a r y a y 4 d a a a a a a a y y a y a r y y a y y y S r y y y y y y y r r * ",
"a s S a s s a a s s s a g a a a a y a r s s s a u s s s s a s s s a a a a A s a a A a i a s g d r s y y s s A a s s a s l A A l h d b d l ' x A A A A A g a s s s s y a y s s y a s y r y s s a r (.",
"A g l a A l b g s s A s a s A g A s g g y A A s s s s s A A { a s l l 0.d x ' | -.{ d b A b F b A H H y s l b g A d b l d 0.' _ h p i i 6 y i a p l ' d I x { d s s a A a s A A A A s A g l b b g {.",
"d ' j.0.-.b -.{ x A I I I I b a ~ a A I a b x I b b l g I -.-...j.j.0.b d a d g _ ' c._ j.0.0.j.-.{ 0.-.b b 0.{ ' ' 0...' d r 2 4 , 3 3 < 9 8 9 3 4 5 a ' j.c.' b -.I x b b I b I x &.d { { -.j.{ {.",
"..{  .{ j.j.c..._ { 0.d.b d.5.-.I m.-.b 5.d.-.b 0.l -.c.0.S.@.{ a y 4 3 q q q 9 w q r r s A { 0.c.c.j.0.v.v.c.' d d a w 3 4 9 9 4 5 w 3 q w w 9 5 2 9 3 4 7 i ' v.v.0.x 0.0.{ -.d.-.c.j.C.v.c.0.-.{.",
"w r 9 r r a a l c.j.v.D...c.c.0.c.S.k.d.g.c.c.d.g.n.S.v.c.l y 5 w w w w t w w w w w r r q q 9 9 r a r d d a r w 5 3 w w 3 w w q 7 y w w w w w w 7 w w w r q 9 w a -.v.D.D.D.l.c.n.n.v.v.x s r q w [.",
"r r w y r 5 q r 5 y a ' l A.D.D.G.n.S.D.D.D.G.D.F.j.l a r 4 w 4 y y w w y 5 r r q w q r r r w y w r r r r q e r 7 y r w 4 r r r y 5 w y y q y y 5 r y y r r r 4 r 5 7 i l ' ' ..d a r r w w e r w ).",
"y r w r y y r r w y r y y y s H I x j.v.0.-.g s r 4 y r y r r w w y y w r w r y y y y y y y r q w y w w y y r r w y y y y y y y y w y u y y r y w w y y y w y w y r y 3 r w w y r r y y y y y 9 q [.",
"r y y y r y y y y y w y y r y u t w y r w y w t a y y a y y y y y y a y y a y a y y r y r y y y y y y y r y u y y y w y y r y y y y y r r y y y a y y S y y y u y r a a y y y y y y y y w y y y a _.",
"t t u u t u S S S u u u u u S u S S S u S S S S D u r u S u u u u u u S S S S S u u u u u u u u S S u u t u S S S S u u u u u u u S u u u u u S D u r u u u u u u r u S S S u t u u u u u u u S S )."
};
