/* XPM */
static char *result[] = {
/* columns rows colors chars-per-pixel */
"100 50 201 2 ",
"   c black",
".  c #010000",
"X  c #010100",
"o  c #020000",
"O  c #030100",
"+  c #020101",
"@  c #030201",
"#  c #040101",
"$  c #040201",
"%  c #070201",
"&  c #040202",
"*  c #070403",
"=  c #0A0301",
"-  c #0A0402",
";  c #0B0402",
":  c #0C0402",
">  c #0E0502",
",  c #0A0504",
"<  c #090604",
"1  c #0B0605",
"2  c #0B0705",
"3  c #0C0705",
"4  c #0E0806",
"5  c #110603",
"6  c #110703",
"7  c #120703",
"8  c #130703",
"9  c #140703",
"0  c #160803",
"q  c #110907",
"w  c #160804",
"e  c #1F0B04",
"r  c #130A08",
"t  c #130B08",
"y  c #140B08",
"u  c #160C09",
"i  c #1D100C",
"p  c #1F110C",
"a  c #240C05",
"s  c #250D05",
"d  c #260D05",
"f  c #270F07",
"g  c #2A0F07",
"h  c #24140E",
"j  c #25140F",
"k  c #26140F",
"l  c #26150F",
"z  c #321207",
"x  c #361207",
"c  c #331308",
"v  c #371409",
"b  c #3B160A",
"n  c #271611",
"m  c #2A1712",
"M  c #321C14",
"N  c #331D16",
"B  c #361D15",
"V  c #3B2119",
"C  c #411609",
"Z  c #40180B",
"A  c #41180B",
"S  c #42180B",
"D  c #43180B",
"F  c #43190B",
"G  c #4C1A0B",
"H  c #521C0C",
"J  c #541D0C",
"K  c #551D0C",
"L  c #561D0C",
"P  c #561E0C",
"I  c #5B200D",
"U  c #41241B",
"Y  c #43241B",
"T  c #42251B",
"R  c #42251C",
"E  c #43251C",
"W  c #4C291E",
"Q  c #60210E",
"!  c #752911",
"~  c #7E2C12",
"^  c #542E22",
"/  c #552E22",
"(  c #562F22",
")  c #5B3225",
"_  c #5D3325",
"`  c #603427",
"'  c #6D3B2B",
"]  c #6F3C2C",
"[  c #703D2C",
"{  c #703D2D",
"}  c #713D2D",
"|  c #723D2D",
" . c #723E2D",
".. c #744030",
"X. c #7E4533",
"o. c #862E13",
"O. c #882F13",
"+. c #933315",
"@. c #923416",
"#. c #973415",
"$. c #973516",
"%. c #983515",
"&. c #993515",
"*. c #9A3515",
"=. c #983516",
"-. c #9A3516",
";. c #9A3616",
":. c #9B3616",
">. c #9C3615",
",. c #A03715",
"<. c #A23715",
"1. c #A33816",
"2. c #A33817",
"3. c #A43816",
"4. c #BE411A",
"5. c #BE421B",
"6. c #864936",
"7. c #884A37",
"8. c #93513B",
"9. c #97523C",
"0. c #97533D",
"q. c #98533D",
"w. c #99533D",
"e. c #9A543E",
"r. c #9B543E",
"t. c #9C553E",
"y. c #C3421A",
"u. c #C4431A",
"i. c #C5431A",
"p. c #C7441A",
"a. c #C8441B",
"s. c #CC471D",
"d. c #D3491D",
"f. c #D3491E",
"g. c #D4491E",
"h. c #D64A1E",
"j. c #D74A1E",
"k. c #DE4C1E",
"l. c #E34E1E",
"z. c #E54E1F",
"x. c #E64E1F",
"c. c #E84F1F",
"v. c #E9501F",
"b. c #EF5322",
"n. c #F45422",
"m. c #F65522",
"M. c #F75522",
"N. c #F85522",
"B. c #F95622",
"V. c #FA5622",
"C. c #FB5622",
"Z. c #FB5723",
"A. c #FD5622",
"S. c #FE5722",
"D. c #FF5722",
"F. c #FF5822",
"G. c #FF5823",
"H. c #FF5923",
"J. c #FF5A23",
"K. c #A05740",
"L. c #A25740",
"P. c #A25840",
"I. c #A35841",
"U. c #A25A43",
"Y. c #A45941",
"T. c #BE674C",
"R. c #BD684E",
"E. c #C26B4F",
"W. c #C46C50",
"Q. c #C66D51",
"!. c #C76D51",
"~. c #D37354",
"^. c #D37355",
"/. c #D47455",
"(. c #D57455",
"). c #D67456",
"_. c #D77556",
"`. c #DE7858",
"'. c #E37B5A",
"]. c #E57C5B",
"[. c #E67C5B",
"{. c #E87D5C",
"}. c #E97E5C",
"|. c #F68662",
" X c #F78662",
".X c #F88763",
"XX c #FA8864",
"oX c #FB8864",
"OX c #FD8964",
"+X c #FE8A65",
"@X c #FF8A65",
"#X c #FF8B65",
"$X c #FF8B66",
"%X c #FF8C66",
"&X c #FF8C67",
"*X c #FF8D67",
"=X c #FF8D68",
"-X c #FF8E68",
";X c #FF8F68",
":X c #FF8F69",
">X c None",
/* pixels */
">X>X>X>X>X>X>X>X>X>X>X>X>X>X>X>X>X>X>X>X>X>X>X>X>X>X>X>X>X>X>X>X>X>X>X>X>X>X>X>X>X>X>X>X>X>X>X>X>X>X>X>X>X>X>X>X>X>X>X>X>X>X>X>X>X>X>X>X>X>X>X>X>X>X>X>X>X>X>X>X>X>X>X>X>X>X>X>X>X>X>X>X>X>X>X>X>X>X>X>X",
">X>X>X>X>X>X>X>X>X>X>X>X>X>X>X>X>X>X>X>X>X>X>X>X>X>X>X>X>X>X>X>X>X>X>X>X>X>X>X>X>X>X>X>X>X>X>X>X>X>X>X>X>X>X>X>X>X>X>X>X>X>X>X>X>X>X>X>X>X>X>X>X>X>X>X>X>X>X>X>X>X>X>X>X>X>X>X>X>X>X>X>X>X>X>X>X>X>X>X>X",
">X>X>X>X>X>X>X>X>X>X>X>X>X>X>X>X>X>X>X>X>X>X>X>X>X>X>X>X>X>X>X>X>X>X>X>X>X>X>X>X>X>X>X>X>X>X>X>X>X>X>X>X>X>X>X>X>X>X>X>X>X>X>X>X>X>X>X>X>X>X>X>X>X>X>X>X>X>X>X>X>X>X>X>X>X>X>X>X>X>X>X>X>X>X>X>X>X>X>X>X",
">X>X>X>X>X>X>X>X>X>X>X>X>X>X>X>X>X>X>X>X>X>X>X>X>X>X>X>X>X>X>X>X>X>X>X>X>X>X>X>X>X>X>X>X>X>X>X>X>X>X>X>X>X>X>X>X>X>X>X>X>X>X>X>X>X>X>X>X>X>X>X>X>X>X>X>X>X>X>X>X>X>X>X>X>X>X>X>X>X>X>X>X>X>X>X>X>X>X>X>X",
">X>X>X>X>X>X>X>X>X>X>X>X>X>X>X>X>X>X>X>X>X>X>X>X>X>X>X>X>X>X>X>X>X>X>X>X>X>X>X>X>X>X>X>X>X>X>X>X>X>X>X>X>X>X>X>X>X>X>X>X>X>X>X>X>X>X>X>X>X>X>X>X>X>X>X>X>X>X>X>X>X>X>X>X>X>X>X>X>X>X>X>X>X>X>X>X>X>X>X>X",
">X>X>X>X>X>X>X>X>X>X>X>X>X>X>X>X>X>X>X>X>X>X>X>X>X>X>X>X>X>X>X>X>X>X>X>X>X>X>X>X>X>X>X>X>X>X>X>X>X>X>X>X>X>X>X>X>X>X>X>X>X>X>X>X>X>X>X>X>X>X>X>X>X>X>X>X>X>X>X>X>X>X>X>X>X>X>X>X>X>X>X>X>X>X>X>X>X>X>X>X",
">X>X>X>X>X>X>X>X>X>X>X>X>X>X>X>X>X>X>X>X>X>X>X>X>X>X>X>X>X>X>X>X>X>X>X>X>X>X>X>X>X>X>X>X>X>X>X>X>X>X>X>X>X>X>X>X>X>X>X>X>X>X>X>X>X>X>X>X>X>X>X>X>X>X>X>X>X>X>X>X>X>X>X>X>X>X>X>X>X>X>X>X>X>X>X>X>X>X>X>X",
"                                                                                                                                                                                                        ",
"        B ( ^ ^ ^ ^ ^ ^ ^ ^ ^ ^ ^ ^ ^ ^ ^ ^ ^ ^ ^ ^ ^ ^ ^ / j       w H K J J J J J J J J J J J J J J J J J J J J J J J J J J K H w       j / ^ ^ ^ ^ ^ ^ ^ ^ ^ ^ ^ ^ ^ ^ ^ ^ ^ ^ ^ ^ ^ ^ ^ ( B         ",
"      X K.$XOXOXOXOXOXOXOXOXOXOXOXOXOXOXOXOXOXOXOXOXOXOXOX+X]       A n.A.A.A.A.A.A.A.A.A.A.A.A.A.A.A.A.A.A.A.A.A.A.A.A.A.A.A.A.n.A       ] +XOXOXOXOXOXOXOXOXOXOXOXOXOXOXOXOXOXOXOXOXOXOXOX$XK.X       ",
"      X L.&X@X@X@X@X@X@X@X@X@X@X@X@X@X@X@X@X@X@X@X@X@X@X@X$X{       S M.D.D.D.D.D.D.D.D.D.D.D.D.D.D.D.D.D.D.D.D.D.D.D.D.D.D.D.D.M.S       { $X@X@X@X@X@X@X@X@X@X@X@X@X@X@X@X@X@X@X@X@X@X@X@X&XL.X       ",
"      X L.&X@X@X@X@X@X@X@X@X@X@X@X@X@X@X@X@X@X@X@X@X@X@X@X$X[       S M.D.D.D.D.D.D.D.D.D.D.D.D.D.D.D.D.D.D.D.D.D.D.D.D.D.D.D.D.M.S       [ $X@X@X@X@X@X@X@X@X@X@X@X@X@X@X@X@X@X@X@X@X@X@X@X&XL.X       ",
"      X L.&X@X@X@X@X@X@X@X@X@X@X@X@X@X@X@X@X@X@X@X@X@X@X@X$X[       S M.D.D.D.D.D.D.D.D.D.D.D.D.D.D.D.D.D.D.D.D.D.D.D.D.D.D.D.D.M.S       [ $X@X@X@X@X@X@X@X@X@X@X@X@X@X@X@X@X@X@X@X@X@X@X@X&XL.X       ",
"      X P.*X@X@X@X@X@X@X@X@X@X@X@X@X@X@X@X@X@X@X@X@X@X@X@X$X}       S M.D.D.D.D.D.D.D.D.D.D.D.D.D.D.D.D.D.D.D.D.D.D.D.D.D.D.D.D.M.S       } $X@X@X@X@X@X@X@X@X@X@X@X@X@X@X@X@X@X@X@X@X@X@X@X*XP.X       ",
"      X t.oX X X X X X X X X X|. X X X X X X X X X X X X X.X'       Z b.M.M.M.M.M.M.M.M.M.M.M.M.M.M.M.M.M.M.M.M.M.M.M.M.M.M.M.M.b.Z       ' .X X X X X X X X X X X X X X|. X X X X X X X X XoXt.X       ",
"        m E R R R R R R R R R T R R R R R R R R R R R R R E i       6 Z S S S S S S S S S S S S S S S S S S S S S S S S S S S S Z 6       i E R R R R R R R R R R R R R T R R R R R R R R R E m         ",
"                                                                                                                                                                                                        ",
"      . Q ;.$.$.$.$.$.=.O.0       ) e.0.0.0.0.0.0.0.0.0.0.0.0.0.0.0.0.0.0.0.0.0.0.0.0.0.0.0.e...*     % ! -.$.$.$.$.$.$.$.$.$.$.$.$.$.$.$.$.$.$.$.$.$.$.$.$.$.$.$.;.I       u 7.q.0.0.0.0.0.e.` .       ",
"      . 3.J.H.H.H.H.H.H.v.d       r.:X&X&X&X&X&X&X&X&X&X&X&X&X&X&X&X&X&X&X&X&X&X&X&X&X&X&X&X-X!.3     : a.J.H.H.H.H.H.H.H.H.H.H.H.H.H.H.H.H.H.H.H.H.H.H.H.H.H.H.H.J.:.      l }.*X&X&X&X&X&X;XY.X       ",
"      . <.G.D.D.D.D.D.F.z.s       q.&X@X@X@X@X@X@X@X@X@X@X@X@X@X@X@X@X@X@X@X@X@X@X@X@X@X@X@X%XW.2     : u.F.D.D.D.D.D.D.D.D.D.D.D.D.D.D.D.D.D.D.D.D.D.D.D.D.D.D.D.H.%.      j ].$X@X@X@X@X@X&XL.X       ",
"      . <.G.D.D.D.D.D.F.z.s       q.&X@X@X@X@X@X@X@X@X@X@X@X@X@X@X@X@X@X@X@X@X@X@X@X@X@X@X@X%XW.2     : u.F.D.D.D.D.D.D.D.D.D.D.D.D.D.D.D.D.D.D.D.D.D.D.D.D.D.D.D.H.%.      j ].$X@X@X@X@X@X&XL.X       ",
"      . <.G.D.D.D.D.D.F.z.s       q.&X@X@X@X@X@X@X@X@X@X@X@X@X@X@X@X@X@X@X@X@X@X@X@X@X@X@X@X%XW.2     : u.F.D.D.D.D.D.D.D.D.D.D.D.D.D.D.D.D.D.D.D.D.D.D.D.D.D.D.D.H.%.      j ].$X@X@X@X@X@X&XL.X       ",
"      . 1.H.F.F.F.F.F.G.c.d       e.-X$X$X$X$X$X$X$X$X$X$X$X$X$X$X$X$X$X$X$X$X$X$X$X$X$X$X$X*XQ.2     : p.H.F.F.F.F.F.F.F.F.F.F.F.F.F.F.F.F.F.F.F.F.F.F.F.F.F.F.F.H.*.      k {.&X$X$X$X$X$X-XI.X       ",
"      . o.j.f.f.f.f.f.g.5.e       X._.^.^.^.^.^.^.^.^.^.^.^.^.^.~.^.^.^.^.^.^.^.^.^.^.^.^.^.).U.<     = 2.h.f.f.f.f.f.f.f.f.f.f.f.f.d.d.f.f.f.f.f.f.f.f.f.f.f.f.f.j.~       p T./.^.^.^.^.^._.6..       ",
"        : 8 8 8 8 8 8 8 5 o       1 t r r r r r r r r r r r t y y y y t t t t t t t t t t t t 4         > 8 8 8 8 8 8 8 8 8 8 8 8 9 9 9 9 8 8 8 8 8 8 8 8 8 8 8 8 8 ;       + q t r r r r r t 3         ",
"        3 t t t t t t t t y y y y t r r r r r r r r r r r t *       # 7 8 8 8 8 8 8 8 8 8 8 8 8 9 9 9 9 8 8 8 8 8 8 8 8 8 8 8 8 7 $       * t t t t t t t t t t t t t y y y y t r r r r r r t 3         ",
"      . 6._.^.^.^.^.^.^.^.^.^.~.^.^.^.^.^.^.^.^.^.^.^.^.^.(._       v s.d.f.f.f.f.f.f.f.f.f.f.f.f.d.d.f.f.f.f.f.f.f.f.f.f.f.f.d.s.v       _ (.^.^.^.^.^.^.^.^.^.^.^.^.^.~.^.^.^.^.^.^.^.^.^._.6..       ",
"      X I.-X$X$X$X$X$X$X$X$X$X$X$X$X$X$X$X$X$X$X$X$X$X$X$X*X|       D B.F.F.F.F.F.F.F.F.F.F.F.F.F.F.F.F.F.F.F.F.F.F.F.F.F.F.F.F.B.D       | *X$X$X$X$X$X$X$X$X$X$X$X$X$X$X$X$X$X$X$X$X$X$X$X-XI.X       ",
"      X L.&X@X@X@X@X@X@X@X@X@X@X@X@X@X@X@X@X@X@X@X@X@X@X@X$X[       S M.D.D.D.D.D.D.D.D.D.D.D.D.D.D.D.D.D.D.D.D.D.D.D.D.D.D.D.D.M.S       [ $X@X@X@X@X@X@X@X@X@X@X@X@X@X@X@X@X@X@X@X@X@X@X@X&XL.X       ",
"      X L.&X@X@X@X@X@X@X@X@X@X@X@X@X@X@X@X@X@X@X@X@X@X@X@X$X[       S M.D.D.D.D.D.D.D.D.D.D.D.D.D.D.D.D.D.D.D.D.D.D.D.D.D.D.D.D.M.S       [ $X@X@X@X@X@X@X@X@X@X@X@X@X@X@X@X@X@X@X@X@X@X@X@X&XL.X       ",
"      X L.&X@X@X@X@X@X@X@X@X@X@X@X@X@X@X@X@X@X@X@X@X@X@X@X$X[       S M.D.D.D.D.D.D.D.D.D.D.D.D.D.D.D.D.D.D.D.D.D.D.D.D.D.D.D.D.M.S       [ $X@X@X@X@X@X@X@X@X@X@X@X@X@X@X@X@X@X@X@X@X@X@X@X&XL.X       ",
"      X Y.;X&X&X&X&X&X&X&X&X&X&X&X&X&X&X&X&X&X&X&X&X&X&X&X=X .      F Z.H.H.H.H.H.H.H.H.H.H.H.H.H.H.H.H.H.H.H.H.H.H.H.H.H.H.H.H.Z.F        .=X&X&X&X&X&X&X&X&X&X&X&X&X&X&X&X&X&X&X&X&X&X&X&X;XY.X       ",
"      . ` e.0.0.0.0.0.0.0.0.0.0.0.0.0.0.0.0.0.0.0.0.0.0.0.w.Y       f @.=.$.$.$.$.$.$.$.$.$.$.$.$.$.$.$.$.$.$.$.$.$.$.$.$.$.$.=.@.f       Y w.0.0.0.0.0.0.0.0.0.0.0.0.0.0.0.0.0.0.0.0.0.0.0.e.` .       ",
"                                                                                                                                                                                                        ",
"        g D S S S S S D b -       n E R R R R R R R R R R R R R T R R R R R R R R R R R R R E N @     O c D S S S S S S S S S S S S S S S S S S S S S S S S S S S F f       , V E R R R R R E m         ",
"      . >.C.M.M.M.M.M.N.k.a       8.oX X X X X X X X X X X X X X|. X X X X X X X X X X X X XXXR.2     ; 4.V.M.M.M.M.M.M.M.M.M.M.M.M.M.m.M.M.M.M.M.M.M.M.M.M.M.M.M.C.+.      h `..X X X X X XoXt.X       ",
"      . <.H.D.D.D.D.D.F.x.s       w.*X@X@X@X@X@X@X@X@X@X@X@X@X@X@X@X@X@X@X@X@X@X@X@X@X@X@X@X%XW.2     : i.F.D.D.D.D.D.D.D.D.D.D.D.D.D.D.D.D.D.D.D.D.D.D.D.D.D.D.D.H.&.      j [.$X@X@X@X@X@X*XP.X       ",
"      . <.G.D.D.D.D.D.F.z.s       q.&X@X@X@X@X@X@X@X@X@X@X@X@X@X@X@X@X@X@X@X@X@X@X@X@X@X@X@X%XW.2     : u.F.D.D.D.D.D.D.D.D.D.D.D.D.D.D.D.D.D.D.D.D.D.D.D.D.D.D.D.H.%.      j ].$X@X@X@X@X@X&XL.X       ",
"      . <.G.D.D.D.D.D.F.z.s       q.&X@X@X@X@X@X@X@X@X@X@X@X@X@X@X@X@X@X@X@X@X@X@X@X@X@X@X@X%XW.2     : u.F.D.D.D.D.D.D.D.D.D.D.D.D.D.D.D.D.D.D.D.D.D.D.D.D.D.D.D.H.%.      j ].$X@X@X@X@X@X&XL.X       ",
"      . <.H.D.D.D.D.D.F.x.s       w.*X@X@X@X@X@X@X@X@X@X@X@X@X@X@X@X@X@X@X@X@X@X@X@X@X@X@X@X%XW.2     : i.F.D.D.D.D.D.D.D.D.D.D.D.D.D.D.D.D.D.D.D.D.D.D.D.D.D.D.D.H.&.      j [.$X@X@X@X@X@X&XL.X       ",
"      . ,.F.A.A.A.A.A.S.l.s       9.$XOXOXOXOXOXOXOXOXOXOXOXOXOXOXOXOXOXOXOXOXOXOXOXOXOXOXOX#XE.2     : y.D.A.A.A.A.A.A.A.A.A.A.A.A.A.A.A.A.A.A.A.A.A.A.A.A.A.A.A.F.#.      j '.+XOXOXOXOXOX$XK.X       ",
"        x P J J J J J K G :       M ( ^ ^ ^ ^ ^ ^ ^ ^ ^ ^ ^ ^ ^ ^ ^ ^ ^ ^ ^ ^ ^ ^ ^ ^ ^ ^ ^ ( U &     # C L J J J J J J J J J J J J J J J J J J J J J J J J J J J P z       3 W / ^ ^ ^ ^ ^ ( B         ",
"                                                                                                                                                                                                        ",
">X>X>X>X>X>X>X>X>X>X>X>X>X>X>X>X>X>X>X>X>X>X>X>X>X>X>X>X>X>X>X>X>X>X>X>X>X>X>X>X>X>X>X>X>X>X>X>X>X>X>X>X>X>X>X>X>X>X>X>X>X>X>X>X>X>X>X>X>X>X>X>X>X>X>X>X>X>X>X>X>X>X>X>X>X>X>X>X>X>X>X>X>X>X>X>X>X>X>X>X",
">X>X>X>X>X>X>X>X>X>X>X>X>X>X>X>X>X>X>X>X>X>X>X>X>X>X>X>X>X>X>X>X>X>X>X>X>X>X>X>X>X>X>X>X>X>X>X>X>X>X>X>X>X>X>X>X>X>X>X>X>X>X>X>X>X>X>X>X>X>X>X>X>X>X>X>X>X>X>X>X>X>X>X>X>X>X>X>X>X>X>X>X>X>X>X>X>X>X>X>X",
">X>X>X>X>X>X>X>X>X>X>X>X>X>X>X>X>X>X>X>X>X>X>X>X>X>X>X>X>X>X>X>X>X>X>X>X>X>X>X>X>X>X>X>X>X>X>X>X>X>X>X>X>X>X>X>X>X>X>X>X>X>X>X>X>X>X>X>X>X>X>X>X>X>X>X>X>X>X>X>X>X>X>X>X>X>X>X>X>X>X>X>X>X>X>X>X>X>X>X>X",
">X>X>X>X>X>X>X>X>X>X>X>X>X>X>X>X>X>X>X>X>X>X>X>X>X>X>X>X>X>X>X>X>X>X>X>X>X>X>X>X>X>X>X>X>X>X>X>X>X>X>X>X>X>X>X>X>X>X>X>X>X>X>X>X>X>X>X>X>X>X>X>X>X>X>X>X>X>X>X>X>X>X>X>X>X>X>X>X>X>X>X>X>X>X>X>X>X>X>X>X",
">X>X>X>X>X>X>X>X>X>X>X>X>X>X>X>X>X>X>X>X>X>X>X>X>X>X>X>X>X>X>X>X>X>X>X>X>X>X>X>X>X>X>X>X>X>X>X>X>X>X>X>X>X>X>X>X>X>X>X>X>X>X>X>X>X>X>X>X>X>X>X>X>X>X>X>X>X>X>X>X>X>X>X>X>X>X>X>X>X>X>X>X>X>X>X>X>X>X>X>X",
">X>X>X>X>X>X>X>X>X>X>X>X>X>X>X>X>X>X>X>X>X>X>X>X>X>X>X>X>X>X>X>X>X>X>X>X>X>X>X>X>X>X>X>X>X>X>X>X>X>X>X>X>X>X>X>X>X>X>X>X>X>X>X>X>X>X>X>X>X>X>X>X>X>X>X>X>X>X>X>X>X>X>X>X>X>X>X>X>X>X>X>X>X>X>X>X>X>X>X>X",
">X>X>X>X>X>X>X>X>X>X>X>X>X>X>X>X>X>X>X>X>X>X>X>X>X>X>X>X>X>X>X>X>X>X>X>X>X>X>X>X>X>X>X>X>X>X>X>X>X>X>X>X>X>X>X>X>X>X>X>X>X>X>X>X>X>X>X>X>X>X>X>X>X>X>X>X>X>X>X>X>X>X>X>X>X>X>X>X>X>X>X>X>X>X>X>X>X>X>X>X"
};
